<svg width="1200" height="600" xmlns="http://www.w3.org/2000/svg">
  <defs>
    <linearGradient id="grad1" x1="0%" y1="0%" x2="100%" y2="100%">
      <stop offset="0%" style="stop-color:#4a7c59;stop-opacity:1" />
      <stop offset="100%" style="stop-color:#f4845f;stop-opacity:1" />
    </linearGradient>
    <pattern id="pattern1" patternUnits="userSpaceOnUse" width="60" height="60" patternTransform="rotate(45)">
      <path d="M0,30 L60,30" stroke="rgba(255,255,255,0.1)" stroke-width="20" />
    </pattern>
    <pattern id="pawPattern" patternUnits="userSpaceOnUse" width="100" height="100">
      <path d="M30,50 C35,35 45,35 50,50 C55,65 45,65 50,50 M50,50 C55,35 65,35 70,50 C75,65 65,65 70,50 M40,70 C30,65 30,85 40,80 C50,75 50,85 40,80 M60,70 C50,65 50,85 60,80 C70,75 70,85 60,80 M50,40 C40,30 60,30 50,40" fill="rgba(255,255,255,0.1)" />
    </pattern>
  </defs>
  <rect width="100%" height="100%" fill="url(#grad1)" />
  <rect width="100%" height="100%" fill="url(#pattern1)" />
  <rect width="100%" height="100%" fill="url(#pawPattern)" />
  <g transform="translate(600, 300)">
    <circle cx="0" cy="0" r="150" fill="rgba(255,255,255,0.1)" />
    <path d="M-70,-40 C-60,-70 -30,-70 -20,-40 C-10,-10 -40,-10 -30,-40 M-20,-40 C-10,-70 20,-70 30,-40 C40,-10 10,-10 20,-40 M-50,20 C-70,10 -70,50 -50,40 C-30,30 -30,50 -50,40 M30,20 C10,10 10,50 30,40 C50,30 50,50 30,40 M-10,-60 C-30,-80 10,-80 -10,-60" fill="rgba(255,255,255,0.2)" transform="scale(2)" />
  </g>
</svg>