<svg width="300" height="300" viewBox="0 0 300 300" xmlns="http://www.w3.org/2000/svg">
  <!-- Background -->
  <rect width="300" height="300" fill="#f8f9fa" rx="10" ry="10" />
  
  <!-- Bird silhouette -->
  <g transform="translate(150, 150) scale(1.2)">
    <!-- Bird body -->
    <ellipse cx="0" cy="0" rx="50" ry="40" fill="#4a7c59" />
    
    <!-- Bird head -->
    <circle cx="40" cy="-20" r="30" fill="#4a7c59" />
    
    <!-- Bird beak -->
    <polygon points="60,-25 85,-20 60,-15" fill="#f9c74f" />
    
    <!-- Bird eye -->
    <circle cx="50" cy="-25" r="5" fill="#212529" />
    <circle cx="51" cy="-26" r="2" fill="white" />
    
    <!-- Bird wings -->
    <path d="M-10,-20 Q-60,-60 -80,-10" stroke="#4a7c59" stroke-width="15" fill="none" />
    <path d="M-10,20 Q-60,60 -80,10" stroke="#4a7c59" stroke-width="15" fill="none" />
    
    <!-- Bird tail -->
    <polygon points="-50,0 -80,-20 -80,20" fill="#4a7c59" />
    
    <!-- Bird feet -->
    <path d="M0,40 L0,60 L-10,70" stroke="#f9c74f" stroke-width="3" fill="none" />
    <path d="M0,40 L0,60 L0,70" stroke="#f9c74f" stroke-width="3" fill="none" />
    <path d="M0,40 L0,60 L10,70" stroke="#f9c74f" stroke-width="3" fill="none" />
    
    <path d="M20,40 L20,60 L10,70" stroke="#f9c74f" stroke-width="3" fill="none" />
    <path d="M20,40 L20,60 L20,70" stroke="#f9c74f" stroke-width="3" fill="none" />
    <path d="M20,40 L20,60 L30,70" stroke="#f9c74f" stroke-width="3" fill="none" />
    
    <!-- Bird feather details -->
    <path d="M-30,-30 Q-20,-35 -10,-30" stroke="#2b4d35" stroke-width="2" fill="none" />
    <path d="M-20,-20 Q-10,-25 0,-20" stroke="#2b4d35" stroke-width="2" fill="none" />
    <path d="M-10,-10 Q0,-15 10,-10" stroke="#2b4d35" stroke-width="2" fill="none" />
    <path d="M-30,30 Q-20,35 -10,30" stroke="#2b4d35" stroke-width="2" fill="none" />
    <path d="M-20,20 Q-10,25 0,20" stroke="#2b4d35" stroke-width="2" fill="none" />
    <path d="M-10,10 Q0,15 10,10" stroke="#2b4d35" stroke-width="2" fill="none" />
  </g>
</svg>