<svg width="300" height="300" viewBox="0 0 300 300" xmlns="http://www.w3.org/2000/svg">
  <!-- Background -->
  <rect width="300" height="300" fill="#f8f9fa" rx="10" ry="10" />
  
  <!-- Dog silhouette -->
  <g transform="translate(150, 150) scale(1.2)">
    <!-- Dog body -->
    <ellipse cx="0" cy="20" rx="70" ry="50" fill="#f4845f" />
    
    <!-- Dog head -->
    <circle cx="-60" cy="-20" r="40" fill="#f4845f" />
    
    <!-- Dog ears -->
    <ellipse cx="-85" cy="-40" rx="20" ry="30" fill="#f4845f" transform="rotate(-30, -85, -40)" />
    <ellipse cx="-35" cy="-40" rx="20" ry="30" fill="#f4845f" transform="rotate(30, -35, -40)" />
    
    <!-- Dog tail -->
    <path d="M70,20 Q100,-10 90,-40" stroke="#f4845f" stroke-width="15" fill="none" />
    
    <!-- Dog legs -->
    <rect x="-40" y="50" width="15" height="40" rx="7" fill="#f4845f" />
    <rect x="-10" y="50" width="15" height="40" rx="7" fill="#f4845f" />
    <rect x="20" y="50" width="15" height="40" rx="7" fill="#f4845f" />
    <rect x="50" y="50" width="15" height="40" rx="7" fill="#f4845f" />
    
    <!-- Dog face -->
    <ellipse cx="-80" cy="-15" rx="8" ry="5" fill="#212529" />
    <ellipse cx="-40" cy="-15" rx="8" ry="5" fill="#212529" />
    <path d="M-70,-5 Q-60,5 -50,-5" stroke="#212529" stroke-width="3" fill="none" />
    <ellipse cx="-60" cy="0" rx="10" ry="5" fill="rgba(0,0,0,0.1)" />
    
    <!-- Dog collar -->
    <path d="M-90,10 Q-60,20 -30,10" stroke="#4a7c59" stroke-width="8" fill="none" />
    <circle cx="-60" cy="15" r="5" fill="#f9c74f" />
  </g>
</svg>